<?xml version="1.0" encoding="iso-8859-1"?>
<!-- Generator: Adobe Illustrator 16.0.0, SVG Export Plug-In . SVG Version: 6.00 Build 0)  -->
<!DOCTYPE svg PUBLIC "-//W3C//DTD SVG 1.1//EN" "http://www.w3.org/Graphics/SVG/1.1/DTD/svg11.dtd">
<svg version="1.1" id="Capa_1" xmlns="http://www.w3.org/2000/svg" xmlns:xlink="http://www.w3.org/1999/xlink" x="0px" y="0px"
	 width="68.093px" height="68.093px" viewBox="0 0 68.093 68.093" style="enable-background:new 0 0 68.093 68.093;"
	 xml:space="preserve">
<g>
	<path d="M34.222,59.741c-0.245,0-0.495-0.078-0.708-0.237L0,34.046L33.517,8.591c0.514-0.39,1.242-0.292,1.635,0.225
		c0.39,0.513,0.289,1.244-0.224,1.634L3.859,34.046l31.069,23.598c0.513,0.391,0.613,1.12,0.224,1.634
		C34.923,59.583,34.575,59.741,34.222,59.741z M67.855,59.278c0.391-0.514,0.29-1.243-0.224-1.634l-31.07-23.598l31.07-23.596
		c0.514-0.39,0.614-1.121,0.224-1.634c-0.393-0.517-1.12-0.615-1.636-0.225L32.704,34.046l33.515,25.457
		c0.21,0.159,0.459,0.237,0.708,0.237C67.276,59.741,67.625,59.583,67.855,59.278z"/>
</g>
<g>
</g>
<g>
</g>
<g>
</g>
<g>
</g>
<g>
</g>
<g>
</g>
<g>
</g>
<g>
</g>
<g>
</g>
<g>
</g>
<g>
</g>
<g>
</g>
<g>
</g>
<g>
</g>
<g>
</g>
</svg>
